<svg xmlns="http://www.w3.org/2000/svg" version="1.1" xmlns:xlink="http://www.w3.org/1999/xlink" xmlns:svgjs="http://svgjs.dev/svgjs" width="1000" height="1000" viewBox="0 0 1000 1000"><rect width="1000" height="1000" fill="#ffffff"></rect><g transform="matrix(0.7,0,0,0.7,149.90044910179654,149.90044910179637)"><svg viewBox="0 0 334 334" data-background-color="#ffffff" preserveAspectRatio="xMidYMid meet" height="1000" width="1000" xmlns="http://www.w3.org/2000/svg" xmlns:xlink="http://www.w3.org/1999/xlink"><g id="tight-bounds" transform="matrix(1,0,0,1,0.04749999999998522,0.04750000000001364)"><svg viewBox="0 0 333.90454557049503 333.90454557049503" height="333.90454557049503" width="333.90454557049503"><g><svg></svg></g><g><svg viewBox="0 0 333.90454557049503 333.90454557049503" height="333.90454557049503" width="333.90454557049503"><g><path d="M0 166.952c0-92.205 74.747-166.952 166.952-166.952 92.205 0 166.952 74.747 166.953 166.952 0 92.205-74.747 166.952-166.953 166.953-92.205 0-166.952-74.747-166.952-166.953zM166.952 320.686c84.905 0 153.733-68.829 153.733-153.734 0-84.905-68.829-153.733-153.733-153.733-84.905 0-153.733 68.829-153.733 153.733 0 84.905 68.829 153.733 153.733 153.734z" data-fill-palette-color="tertiary" fill="#e56d90" stroke="transparent"></path><ellipse rx="160.27418187383762" ry="160.27418187383762" cx="166.95227278524752" cy="166.95227278524752" fill="#e56d90" stroke="transparent" stroke-width="0" fill-opacity="1" data-fill-palette-color="tertiary"></ellipse></g><g transform="matrix(1,0,0,1,146.57614422498852,71.17305217166896)"><svg viewBox="0 0 40.75225712051797 191.55844122715712" height="191.55844122715712" width="40.75225712051797"><g><svg viewBox="0 0 40.75225712051797 191.55844122715712" height="191.55844122715712" width="40.75225712051797"><g><svg viewBox="0 0 53.25596380216 250.33286823407263" height="191.55844122715712" width="40.75225712051797"><g transform="matrix(1,0,0,1,0,58.77442700691553)"><svg viewBox="0 0 53.25596380216 191.55844122715712" height="191.55844122715712" width="53.25596380216"><g id="textblocktransform"><svg viewBox="0 0 53.25596380216 191.55844122715712" height="191.55844122715712" width="53.25596380216" id="textblock"><g><svg viewBox="0 0 53.25596380216 191.55844122715712" height="191.55844122715712" width="53.25596380216"><g transform="matrix(1,0,0,1,0,0)"><svg width="53.25596380216" viewBox="2.799999952316284 -35.25 9.800000190734863 35.25" height="191.55844122715712" data-palette-color="#ffffff"><path d="M2.8-35.25L12.6-35.25 12.6 0 2.8 0 2.8-35.25Z" opacity="1" transform="matrix(1,0,0,1,0,0)" fill="#ffffff" class="wordmark-text-0" data-fill-palette-color="quaternary" id="text-0"></path></svg></g></svg></g></svg></g></svg></g><g transform="matrix(1,0,0,1,10.171889086212559,0)"><svg viewBox="0 0 32.91218562973488 13.552076435773186" height="13.552076435773186" width="32.91218562973488"><g><svg xmlns="http://www.w3.org/2000/svg" data-name="Your Icon" viewBox="41.5 39 17 7" x="0" y="0" height="13.552076435773186" width="32.91218562973488" class="icon-icon-0" data-fill-palette-color="quaternary" id="icon-0"><circle cx="45" cy="42.5" r="3.5" fill="#ffffff" data-fill-palette-color="quaternary"></circle><circle cx="55" cy="42.5" r="3.5" fill="#ffffff" data-fill-palette-color="quaternary"></circle></svg></g></svg></g><g></g></svg></g></svg></g></svg></g></svg></g><defs></defs></svg><rect width="333.90454557049503" height="333.90454557049503" fill="none" stroke="none" visibility="hidden"></rect></g></svg></g></svg>